HIERARCHY
ROOT Hips
{
	OFFSET 4.076200 -17.275196 43.303001
	CHANNELS 6 Xposition Yposition Zposition Zrotation Xrotation Yrotation
	JOINT Chest
	{
		OFFSET -0.689800 0.941999 5.341000
		CHANNELS 6 Xposition Yposition Zposition Zrotation Xrotation Yrotation
		JOINT Chest2
		{
			OFFSET 0.000000 0.000000 4.278900
			CHANNELS 6 Xposition Yposition Zposition Zrotation Xrotation Yrotation
			JOINT Neck
			{
				OFFSET 0.000000 0.000000 9.970299
				CHANNELS 6 Xposition Yposition Zposition Zrotation Xrotation Yrotation
				JOINT Head
				{
					OFFSET 0.000000 0.000002 2.173901
					CHANNELS 6 Xposition Yposition Zposition Zrotation Xrotation Yrotation
					End Site
					{
						OFFSET 0.000000 0.000000 6.488197
					}
				}
			}
			JOINT LeftCollar
			{
				OFFSET 2.472300 -0.285801 5.433899
				CHANNELS 6 Xposition Yposition Zposition Zrotation Xrotation Yrotation
				JOINT LeftShoulder
				{
					OFFSET 5.327700 0.000000 0.000000
					CHANNELS 6 Xposition Yposition Zposition Zrotation Xrotation Yrotation
					JOINT LeftElbow
					{
						OFFSET 0.000000 0.000000 -10.713001
						CHANNELS 6 Xposition Yposition Zposition Zrotation Xrotation Yrotation
						JOINT LeftWrist
						{
							OFFSET 0.000000 -0.000002 -13.396900
							CHANNELS 6 Xposition Yposition Zposition Zrotation Xrotation Yrotation
							End Site
							{
								OFFSET 0.000000 0.000000 -2.173901
							}
						}
					}
				}
			}
			JOINT RightCollar
			{
				OFFSET -2.589400 -1.358400 6.105000
				CHANNELS 6 Xposition Yposition Zposition Zrotation Xrotation Yrotation
				JOINT RightShoulder
				{
					OFFSET -4.580200 0.000000 0.000000
					CHANNELS 6 Xposition Yposition Zposition Zrotation Xrotation Yrotation
					JOINT RightElbow
					{
						OFFSET 0.000000 0.000000 -10.761101
						CHANNELS 6 Xposition Yposition Zposition Zrotation Xrotation Yrotation
						JOINT RightWrist
						{
							OFFSET 0.000000 -0.000002 -13.028500
							CHANNELS 6 Xposition Yposition Zposition Zrotation Xrotation Yrotation
							End Site
							{
								OFFSET 0.000000 0.000000 -2.173901
							}
						}
					}
				}
			}
		}
	}
	JOINT LeftHip
	{
		OFFSET 2.532500 0.486900 -2.489700
		CHANNELS 6 Xposition Yposition Zposition Zrotation Xrotation Yrotation
		JOINT LeftKnee
		{
			OFFSET 0.000000 -0.000002 -18.199398
			CHANNELS 6 Xposition Yposition Zposition Zrotation Xrotation Yrotation
			JOINT LeftAnkle
			{
				OFFSET 0.000000 -0.000002 -16.083900
				CHANNELS 6 Xposition Yposition Zposition Zrotation Xrotation Yrotation
				End Site
				{
					OFFSET 0.000000 -8.641399 0.000000
				}
			}
		}
	}
	JOINT RightHip
	{
		OFFSET -2.112700 -0.049900 -2.711102
		CHANNELS 6 Xposition Yposition Zposition Zrotation Xrotation Yrotation
		JOINT RightKnee
		{
			OFFSET 0.000000 -0.000002 -19.127298
			CHANNELS 6 Xposition Yposition Zposition Zrotation Xrotation Yrotation
			JOINT RightAnkle
			{
				OFFSET 0.000000 -0.000002 -14.874901
				CHANNELS 6 Xposition Yposition Zposition Zrotation Xrotation Yrotation
				End Site
				{
					OFFSET 0.000000 -8.198299 0.000000
				}
			}
		}
	}
}
MOTION
Frames: 8
Frame Time: 0.041667
-5.807699 49.668201 41.840797 -372.211432 12.037465 -11.312993 -0.689801 0.941999 5.340990 16.944656 -15.673583 7.000517 0.000000 0.000005 4.278905 -13.246097 1.755221 -0.981007 0.000001 -0.000004 9.970296 10.117161 13.320854 12.247764 -0.000000 0.000002 2.173898 0.413247 -0.966417 1.122138 2.472300 -0.285806 5.433893 -3.611540 -3.454501 -6.470778 5.327703 0.000003 0.000001 -8.208057 22.462412 -26.022396 -0.000002 -0.000003 -10.712993 20.378076 -12.200176 49.740593 -0.000000 -0.000008 -13.396894 92.205997 -8.339950 134.347444 -2.589398 -1.358400 6.104998 14.096076 2.034140 21.827249 -4.580194 0.000000 0.000004 -3.765362 -21.563382 72.679223 -0.000001 0.000001 -10.761097 -103.935323 -31.385153 -149.422081 0.000001 0.000008 -13.028495 78.465944 184.432033 54.817114 2.532500 0.486896 -2.489708 8.804321 -13.663347 16.069601 0.000001 -0.000001 -18.199398 26.570491 21.935299 6.901848 0.000003 0.000002 -16.083902 -4.197839 30.971944 -16.251907 -2.112703 -0.049905 -2.711106 -58.128127 -45.471930 -7.389985 0.000001 0.000004 -19.127295 929.712782 94.264759 -908.819725 0.000005 -0.000003 -14.874899 4.743811 60.813682 1.541356
-5.793198 49.659695 41.830597 -372.167937 12.013691 -11.383741 -0.689801 0.942006 5.340993 16.907203 -15.580164 6.959690 -0.000001 0.000005 4.278908 -13.284418 1.757843 -0.981627 0.000002 -0.000000 9.970301 10.023557 13.253659 12.597796 -0.000001 -0.000002 2.173900 0.547569 -1.113198 1.028589 2.472301 -0.285803 5.433904 -3.590709 -3.476570 -6.416352 5.327698 0.000004 -0.000001 -8.043125 22.335518 -26.087267 -0.000003 -0.000001 -10.713001 20.572354 -11.711235 49.775751 0.000000 -0.000004 -13.396894 91.605978 -8.212227 134.486944 -2.589401 -1.358397 6.105002 14.111802 1.952537 22.132145 -4.580201 0.000006 0.000003 -3.710089 -21.221816 72.406760 -0.000003 -0.000004 -10.761106 -105.045482 -31.839863 -149.891179 -0.000001 -0.000001 -13.028499 77.687958 184.495403 55.213572 2.532503 0.486903 -2.489697 8.804486 -13.640841 16.142175 0.000000 0.000001 -18.199398 26.100110 21.979675 6.980810 -0.000001 -0.000002 -16.083904 -3.969162 30.856411 -15.862401 -2.112701 -0.049903 -2.711105 -59.212467 -45.610893 -8.130724 0.000002 0.000003 -19.127293 935.229062 94.087659 -913.556052 0.000002 -0.000001 -14.874897 4.541759 60.858276 1.192295
-5.779802 49.651424 41.821804 -372.135152 12.016161 -11.448166 -0.689799 0.941991 5.340992 16.884444 -15.508638 6.928844 -0.000000 0.000006 4.278913 -13.325283 1.777014 -0.973317 -0.000002 -0.000005 9.970288 9.805386 13.166405 13.013579 -0.000002 -0.000002 2.173901 0.825189 -1.175771 0.788749 2.472298 -0.285807 5.433898 -3.308425 -3.750447 -6.494501 5.327701 0.000005 -0.000002 -8.228862 22.507288 -25.906686 -0.000007 -0.000002 -10.713005 21.053874 -11.156487 49.839641 0.000001 -0.000010 -13.396900 90.633065 -8.353245 134.403561 -2.589400 -1.358400 6.104992 13.902889 1.648750 22.552750 -4.580203 0.000005 -0.000002 -3.460817 -21.154807 72.135137 0.000009 0.000000 -10.761101 -105.033461 -31.962359 -149.889594 0.000002 0.000004 -13.028495 77.610524 184.448890 55.610762 2.532500 0.486892 -2.489710 8.878338 -13.686155 16.208903 0.000001 -0.000001 -18.199398 25.900410 22.141050 6.995583 -0.000000 0.000003 -16.083900 -3.928543 30.767427 -15.627505 -2.112703 -0.049906 -2.711105 -60.193207 -45.756708 -8.871223 -0.000004 0.000005 -19.127295 925.031207 93.926958 -902.939315 0.000003 0.000001 -14.874901 4.798869 61.294924 1.513037
-5.767097 49.643703 41.815201 -372.109307 12.065762 -11.501020 -0.689799 0.941996 5.340996 16.878330 -15.488651 6.917894 -0.000000 0.000007 4.278907 -13.323906 1.794116 -0.957169 0.000000 -0.000007 9.970300 9.623257 13.074393 13.313568 -0.000002 0.000004 2.173900 1.009731 -1.184985 0.628046 2.472300 -0.285812 5.433905 -3.025802 -3.960367 -6.564246 5.327700 -0.000002 0.000000 -8.645661 22.625519 -25.762555 -0.000003 0.000000 -10.712998 21.170868 -11.073964 49.789897 0.000001 -0.000004 -13.396896 90.509883 -8.706039 134.095082 -2.589400 -1.358407 6.105002 13.787413 1.471853 22.651694 -4.580195 -0.000003 0.000002 -3.259761 -21.051989 72.098685 -0.000000 0.000001 -10.761099 -105.295562 -32.039451 -150.028302 0.000003 0.000002 -13.028495 77.372950 184.425326 55.680761 2.532500 0.486896 -2.489703 8.964803 -13.790939 16.273078 0.000000 -0.000001 -18.199396 26.248118 22.312336 6.907762 0.000002 0.000000 -16.083902 -4.234457 30.801223 -15.623257 -2.112702 -0.049901 -2.711097 -60.980503 -45.902406 -9.500655 -0.000003 0.000003 -19.127293 928.171782 93.782923 -905.525607 -0.000005 -0.000005 -14.874896 4.773209 61.395805 1.006881
-5.754999 49.635700 41.808998 -372.095018 12.149605 -11.534327 -0.689801 0.942008 5.340999 16.889403 -15.509821 6.903820 0.000001 0.000001 4.278901 -13.317808 1.790624 -0.944808 0.000000 0.000007 9.970297 9.403597 12.989345 13.628481 -0.000000 -0.000000 2.173910 1.159176 -1.190027 0.562069 2.472301 -0.285797 5.433897 -2.833053 -4.118732 -6.564157 5.327701 0.000003 0.000000 -8.831590 22.728723 -25.768197 -0.000001 0.000002 -10.713003 21.311000 -10.813228 49.794869 0.000002 -0.000001 -13.396898 90.132816 -9.042746 133.824224 -2.589399 -1.358392 6.105000 13.622386 1.283281 22.719021 -4.580200 0.000008 -0.000008 -2.997392 -21.056751 72.083808 0.000007 0.000001 -10.761099 -105.046096 -32.081846 -149.967376 0.000003 0.000005 -13.028500 77.436191 184.249585 55.830472 2.532498 0.486912 -2.489697 9.214970 -14.019360 16.352304 0.000001 0.000000 -18.199398 26.628343 22.706382 6.689436 -0.000001 -0.000008 -16.083902 -4.626155 30.760498 -15.668140 -2.112704 -0.049894 -2.711098 -61.693035 -46.050355 -10.148795 0.000004 0.000000 -19.127295 932.374261 93.637324 -909.199320 0.000005 -0.000003 -14.874895 4.555651 61.391113 0.654980
-5.743598 49.627506 41.804298 -372.080866 12.279485 -11.562893 -0.689801 0.942000 5.340998 16.915182 -15.586490 6.900056 -0.000000 0.000004 4.278889 -13.355916 1.804145 -0.940343 0.000002 0.000003 9.970295 9.362443 12.947955 13.830582 -0.000001 0.000006 2.173887 1.191492 -1.173743 0.531812 2.472301 -0.285796 5.433896 -2.591348 -4.326167 -6.619811 5.327699 -0.000003 -0.000001 -9.029196 22.825449 -25.702075 -0.000004 0.000006 -10.713004 21.361162 -10.597726 49.776110 0.000000 -0.000006 -13.396896 89.841624 -9.385170 133.518450 -2.589395 -1.358396 6.105000 13.518197 1.106963 22.801004 -4.580200 0.000003 0.000001 -2.797807 -20.907769 72.082456 0.000007 0.000006 -10.761105 -105.108128 -32.191365 -149.981679 0.000004 0.000001 -13.028498 77.572337 184.151681 55.359899 2.532500 0.486899 -2.489707 9.465772 -14.280545 16.443421 -0.000002 0.000001 -18.199396 26.341678 23.081222 6.597410 -0.000000 0.000005 -16.083900 -4.545338 30.552078 -15.478305 -2.112704 -0.049899 -2.711108 -62.438106 -46.203136 -10.884521 -0.000005 0.000002 -19.127293 925.447138 93.501178 -901.931835 0.000002 0.000001 -14.874905 4.577235 61.638530 0.744888
-5.733901 49.620106 41.803600 -372.076276 12.425382 -11.588849 -0.689799 0.941996 5.340999 16.957430 -15.689525 6.907007 0.000000 -0.000000 4.278907 -13.410159 1.799488 -0.942531 0.000001 -0.000009 9.970294 9.597376 12.939298 13.775867 -0.000001 0.000000 2.173902 1.012482 -1.159922 0.623966 2.472302 -0.285811 5.433903 -2.519479 -4.420018 -6.645486 5.327705 0.000004 -0.000001 -8.715870 22.888659 -25.856718 0.000004 0.000002 -10.712998 21.126702 -10.552980 49.833494 0.000001 -0.000004 -13.396892 89.646841 -9.922107 133.040515 -2.589400 -1.358408 6.105005 13.454955 0.987809 22.839618 -4.580202 0.000005 -0.000000 -2.454436 -21.054485 72.238307 0.000003 0.000009 -10.761103 -104.543531 -32.047934 -149.721653 -0.000000 0.000004 -13.028498 78.117113 184.216732 55.203245 2.532500 0.486899 -2.489703 9.661304 -14.579903 16.523247 -0.000002 -0.000001 -18.199396 26.070199 23.468156 6.507768 0.000000 -0.000004 -16.083899 -4.416129 30.321269 -15.279903 -2.112701 -0.049900 -2.711097 -62.715589 -46.344049 -11.312837 -0.000003 -0.000002 -19.127289 915.806626 93.559200 -892.266079 0.000001 -0.000004 -14.874903 4.697932 61.881364 0.833814
-5.723803 49.612209 41.803509 -372.058436 12.574534 -11.609174 -0.689802 0.942004 5.340994 16.989652 -15.812211 6.902649 0.000001 -0.000004 4.278902 -13.463670 1.784440 -0.947344 0.000003 -0.000005 9.970301 9.809676 12.938408 13.756666 -0.000001 0.000007 2.173910 0.883001 -1.198825 0.694506 2.472302 -0.285802 5.433906 -2.461680 -4.523058 -6.687828 5.327699 0.000002 0.000007 -8.460457 22.946555 -25.821143 0.000001 -0.000001 -10.713001 20.669701 -10.712191 49.699462 0.000003 -0.000006 -13.396892 89.834254 -10.183880 132.768345 -2.589394 -1.358406 6.105004 13.382644 0.884535 22.911996 -4.580201 0.000005 0.000005 -2.200420 -21.033258 72.281775 0.000005 -0.000004 -10.761101 -104.569213 -32.181338 -149.731503 -0.000001 0.000002 -13.028503 78.307941 184.321001 54.884385 2.532499 0.486902 -2.489707 9.818074 -14.866515 16.610378 0.000000 -0.000000 -18.199396 25.430930 23.790164 6.487184 -0.000001 -0.000001 -16.083900 -4.000932 30.038800 -14.965923 -2.112701 -0.049899 -2.711099 -63.281129 -46.472877 -11.944491 0.000000 0.000003 -19.127293 911.736489 93.528704 -887.907653 0.000002 0.000001 -14.874900 4.626333 61.976522 0.837358
